<?xml version="1.0" encoding="UTF-8"?><svg id="a" xmlns="http://www.w3.org/2000/svg" xmlns:xlink="http://www.w3.org/1999/xlink" viewBox="0 0 1055.05 743.84"><defs><style>.w{clip-path:url(#t);}.x{fill:#96d94e;}.y{fill:#00a332;}.z{fill:#ef2500;}.aa{fill:#4285f4;}.ab{fill:#ffc000;}.ac{fill:#00c1ff;}.ad{fill:#ff7337;}.ae{fill:none;}.af{fill:#ff7ea9;}.ag{fill:#0058ff;}</style><clipPath id="t"><rect class="ae" y="0" width="1055.05" height="743.84"/></clipPath></defs><g id="b"><g id="c"><path id="d" class="ab" d="m389.58,0l-95.39,95.39,137.97,137.95-137.97,137.95,95.39,95.39,233.33-233.33L389.58,0Z"/></g><g id="e"><path id="f" class="x" d="m294.19,95.39l328.72,137.95h-190.75l-137.97-137.95Z"/></g><g id="g"><path id="h" class="y" d="m389.58,0l-95.39,95.39,328.72,137.95L389.58,0Z"/></g><g id="i"><path id="j" class="ad" d="m432.16,233.33l-42.59,233.33,233.33-233.33h-190.75Z"/></g><g id="k"><path id="l" class="af" d="m665.47,0l-116.32,116.32,95.39,95.39,116.32-116.33L665.47,0Z"/></g><g id="m"><path id="n" class="z" d="m665.47,0l-20.94,211.71,116.32-116.33L665.47,0Z"/></g><g id="o"><path id="p" class="ac" d="m760.86,371.28l-116.32-116.32-95.39,95.39,116.33,116.32,95.39-95.39Z"/></g><g id="q"><path id="r" class="ag" d="m665.47,466.67l-116.33-116.32,211.71,20.94-95.39,95.39Z"/></g><g id="s"><g class="w"><g id="u"><path id="v" class="aa" d="m581.51,704.85h25.77v-92.27h-25.77v92.27Zm12.88-133.19c-8.88,0-16.02,7.14-16.02,16.02s7.14,16.19,16.02,16.19,16.19-7.31,16.19-16.19-7.31-16.02-16.19-16.02m-144.06,40.92h-30.64l-31.69,41.44v-81.48h-25.77v132.32h25.77v-43l32.56,43h31.51l-37.61-47.01,35.87-45.27Zm26.1-14.97h34.99v107.25h26.99v-107.25h32.18v-25.07h-94.16v25.07Zm352.33,107.25h25.77v-92.27h-25.77v92.27Zm175.1-49.1c-8.36,0-13.58-5.22-13.58-13.58s5.4-13.58,13.93-13.58,13.23,5.05,13.23,13.58-5.05,13.58-13.58,13.58m-13.75,48.57h21.94c9.05,0,13.06,2.96,13.06,9.4,0,7.14-7.14,10.97-20.72,10.97-12.36,0-19.15-3.83-19.15-10.79,0-3.83,1.74-7.31,4.88-9.58m64.94-94.19h-2.61c-9.05,0-14.97,2.26-21.42,9.05-6.44-5.75-15.84-9.05-27.16-9.05-22.46,0-37.26,12.71-37.26,32.21,0,10.45,4.35,19.15,11.84,24.72-8.53,3.65-12.88,9.75-12.88,17.93,0,6.44,2.61,11.66,7.66,14.97-8.18,3.83-13.06,10.27-13.06,18.28,0,16.37,15.32,25.59,42.83,25.59,29.95,0,48.4-12.19,48.4-31.69,0-17.58-12.54-27.68-34.65-27.86h-21.41c-6.09,0-8.71-1.74-8.71-5.57,0-2.61,1.57-4.53,4.87-5.57,3.66.87,7.84,1.39,12.36,1.39,22.46,0,37.26-12.88,37.26-32.21,0-3.48-.52-6.62-1.39-9.75h15.32v-22.46Zm-133.96,0c-13.41,0-22.98,5.22-28.73,13.93l-4.18-11.49h-16.19v92.27h25.77v-53.8c0-10.45,5.75-17.76,16.19-17.76,8.71,0,12.71,4.53,12.71,13.23v58.33h25.77v-65.12c0-18.8-12.88-29.6-31.34-29.6m-591.42,40.22l-15.84-5.57c-6.44-2.09-9.23-4.7-9.23-8.71,0-4.88,3.83-8.01,9.93-8.01,7.66,0,12.19,3.83,14.27,12.19l20.37-6.44c-4.18-15.84-15.67-23.68-34.47-23.68-20.55,0-33.95,11.32-33.95,28.38,0,12.19,7.31,21.41,20.54,26.29l15.5,5.75c5.4,1.74,9.75,4.35,9.75,9.4,0,5.4-4.53,9.4-11.32,9.4-8.01,0-14.63-5.57-16.89-14.45l-20.37,6.62c4.53,16.89,17.41,25.77,37.26,25.77,21.94,0,36.56-12.54,36.56-31.51,0-11.49-7.83-20.54-22.11-25.42m340.51,34.3c-12.01,0-21.07-10.27-21.07-25.94s9.05-26.29,21.07-26.29c11.32,0,19.5,9.92,19.5,26.29,0,17.24-7.49,25.94-19.5,25.94m4.7-74.52c-13.23,0-22.98,5.74-29.07,15.84l-4.88-13.4h-16.19v128.84h25.77v-44.92c6.09,6.79,14.45,10.8,24.55,10.8,25.07,0,40.57-17.59,40.57-48.58s-15.32-48.57-40.74-48.57m166.77-38.48c-8.88,0-16.02,7.14-16.02,16.02s7.14,16.19,16.02,16.19,16.19-7.31,16.19-16.19-7.31-16.02-16.19-16.02m-69.74,112.99c-12.01,0-21.07-10.27-21.07-25.94s9.05-26.29,21.07-26.29c11.32,0,19.5,9.92,19.5,26.29,0,17.24-7.49,25.94-19.5,25.94m4.7-74.52c-13.23,0-22.98,5.74-29.08,15.84l-4.87-13.4h-16.19v128.84h25.77v-44.92c6.09,6.79,14.45,10.8,24.55,10.8,25.07,0,40.57-17.59,40.57-48.58s-15.32-48.57-40.74-48.57m-534.65,12.54l-4.35-10.1h-17.41v92.27h25.77v-69.82h27.16v-24.9h-2.09c-11.84,0-20.54,4.35-29.08,12.54m-161.86,26.29l-71.21-78H0v133.89h25.07v-76.26l71.03,77.83h9.05v-133.89h-25.07v76.43Zm83.16,35.69c-9.92,0-19.33-5.92-19.33-25.94s9.4-26.29,19.33-26.29,19.67,7.66,19.67,26.29c0,20.37-9.75,25.94-19.67,25.94m0-74.52c-25.25,0-45.27,17.41-45.27,48.57s20.02,48.58,45.27,48.58,45.44-17.41,45.44-48.58-20.37-48.57-45.44-48.57"/></g></g></g></g></svg>